<svg width="282" height="15" viewBox="0 0 282 15" fill="none" xmlns="http://www.w3.org/2000/svg">
<path d="M3.5 8.90909C3.5 8.36553 3.63258 7.87003 3.89773 7.42259C4.16288 6.97514 4.51918 6.61884 4.96662 6.35369C5.41406 6.08854 5.90956 5.95597 6.45312 5.95597C6.92377 5.95597 7.35795 6.05705 7.75568 6.25923C8.15672 6.46141 8.48816 6.73816 8.75 7.08949C9.01184 7.4375 9.17424 7.83191 9.23722 8.27273H8.03409C7.9678 7.93134 7.78385 7.65294 7.48224 7.4375C7.18063 7.21875 6.83759 7.10938 6.45312 7.10938C6.12169 7.10938 5.82008 7.19058 5.5483 7.35298C5.27652 7.51539 5.05942 7.73248 4.89702 8.00426C4.73461 8.27604 4.65341 8.57765 4.65341 8.90909C4.65341 9.24053 4.73461 9.54214 4.89702 9.81392C5.05942 10.0857 5.27652 10.3028 5.5483 10.4652C5.82008 10.6276 6.12169 10.7088 6.45312 10.7088C6.83759 10.7088 7.16241 10.6011 7.42756 10.3857C7.69602 10.1669 7.86506 9.88684 7.93466 9.54545H9.13778C9.07481 9.98627 8.92069 10.3823 8.67543 10.7337C8.43016 11.0817 8.11529 11.3568 7.73082 11.5589C7.34967 11.7611 6.92377 11.8622 6.45312 11.8622C5.90956 11.8622 5.41406 11.7296 4.96662 11.4645C4.51918 11.1993 4.16288 10.843 3.89773 10.3956C3.63258 9.94815 3.5 9.45265 3.5 8.90909ZM6.40341 14.1591C5.68087 14.1591 5.00142 14.0232 4.36506 13.7514C3.73201 13.4796 3.17353 13.1035 2.68963 12.6229C2.20904 12.139 1.8312 11.5805 1.55611 10.9474C1.28433 10.3144 1.15009 9.63494 1.15341 8.90909C1.15672 8.18324 1.29427 7.50379 1.56605 6.87074C1.84115 6.23769 2.21899 5.68087 2.69957 5.20028C3.18016 4.71638 3.73698 4.33854 4.37003 4.06676C5.00308 3.79498 5.68087 3.65909 6.40341 3.65909C7.12926 3.65909 7.80871 3.79498 8.44176 4.06676C9.07813 4.33854 9.63494 4.71638 10.1122 5.20028C10.5928 5.68087 10.969 6.23769 11.2408 6.87074C11.5125 7.50379 11.6501 8.18324 11.6534 8.90909C11.6567 9.63494 11.5225 10.3144 11.2507 10.9474C10.9789 11.5805 10.6027 12.139 10.1222 12.6229C9.64157 13.1035 9.0831 13.4796 8.44673 13.7514C7.81037 14.0232 7.12926 14.1591 6.40341 14.1591ZM6.40341 13.0057C6.97017 13.0057 7.50213 12.8996 7.99929 12.6875C8.49645 12.4754 8.93229 12.1821 9.30682 11.8075C9.68134 11.433 9.97467 10.9988 10.1868 10.505C10.3989 10.0078 10.5033 9.47751 10.5 8.91406C10.4967 8.3473 10.389 7.81534 10.1768 7.31818C9.96473 6.82102 9.6714 6.38518 9.29688 6.01065C8.92235 5.63613 8.48816 5.3428 7.99432 5.13068C7.50047 4.91856 6.97017 4.8125 6.40341 4.8125C5.83996 4.8125 5.31132 4.91856 4.81747 5.13068C4.32363 5.3428 3.88944 5.63778 3.51491 6.01562C3.14039 6.39015 2.84541 6.82599 2.62997 7.32315C2.41785 7.817 2.31013 8.3473 2.30682 8.91406C2.3035 9.47419 2.40791 10.0028 2.62003 10.5C2.83215 10.9938 3.12547 11.428 3.5 11.8026C3.87784 12.1771 4.31368 12.4721 4.80753 12.6875C5.30469 12.8996 5.83665 13.0057 6.40341 13.0057ZM17.802 14V13.1051L21.1628 9.42614C21.5572 8.99526 21.882 8.62074 22.1373 8.30256C22.3925 7.98106 22.5814 7.67945 22.704 7.39773C22.83 7.11269 22.8929 6.81439 22.8929 6.50284C22.8929 6.14489 22.8068 5.83499 22.6344 5.57315C22.4654 5.31132 22.2334 5.10914 21.9384 4.96662C21.6434 4.8241 21.312 4.75284 20.9441 4.75284C20.553 4.75284 20.2116 4.83404 19.9199 4.99645C19.6316 5.15554 19.4078 5.37926 19.2488 5.66761C19.093 5.95597 19.0151 6.29403 19.0151 6.68182H17.8418C17.8418 6.08523 17.9793 5.56155 18.2544 5.1108C18.5295 4.66004 18.9041 4.30871 19.378 4.05682C19.8553 3.80492 20.3906 3.67898 20.9838 3.67898C21.5804 3.67898 22.1091 3.80492 22.5698 4.05682C23.0305 4.30871 23.3917 4.64844 23.6536 5.07599C23.9154 5.50355 24.0463 5.97917 24.0463 6.50284C24.0463 6.87737 23.9784 7.24361 23.8425 7.60156C23.7099 7.9562 23.4779 8.35227 23.1465 8.78977C22.8184 9.22396 22.3626 9.75426 21.7793 10.3807L19.4924 12.8267V12.9062H24.2253V14H17.802ZM29.5996 14.1392C28.8506 14.1392 28.2125 13.9354 27.6855 13.5277C27.1586 13.1167 26.7559 12.5218 26.4775 11.7429C26.199 10.9607 26.0598 10.0161 26.0598 8.90909C26.0598 7.80871 26.199 6.86908 26.4775 6.0902C26.7592 5.308 27.1635 4.71141 27.6905 4.30043C28.2208 3.88613 28.8572 3.67898 29.5996 3.67898C30.342 3.67898 30.9767 3.88613 31.5037 4.30043C32.034 4.71141 32.4384 5.308 32.7168 6.0902C32.9985 6.86908 33.1394 7.80871 33.1394 8.90909C33.1394 10.0161 33.0002 10.9607 32.7218 11.7429C32.4434 12.5218 32.0407 13.1167 31.5137 13.5277C30.9867 13.9354 30.3487 14.1392 29.5996 14.1392ZM29.5996 13.0455C30.342 13.0455 30.9187 12.6875 31.3297 11.9716C31.7407 11.2557 31.9462 10.2348 31.9462 8.90909C31.9462 8.02746 31.8517 7.27675 31.6628 6.65696C31.4772 6.03717 31.2087 5.56487 30.8574 5.24006C30.5094 4.91525 30.0901 4.75284 29.5996 4.75284C28.8638 4.75284 28.2888 5.11577 27.8745 5.84162C27.4602 6.56416 27.253 7.58665 27.253 8.90909C27.253 9.79072 27.3458 10.5398 27.5314 11.1562C27.717 11.7727 27.9838 12.2417 28.3319 12.5632C28.6832 12.8847 29.1058 13.0455 29.5996 13.0455ZM35.0286 14V13.1051L38.3894 9.42614C38.7838 8.99526 39.1086 8.62074 39.3638 8.30256C39.619 7.98106 39.8079 7.67945 39.9306 7.39773C40.0565 7.11269 40.1195 6.81439 40.1195 6.50284C40.1195 6.14489 40.0333 5.83499 39.861 5.57315C39.6919 5.31132 39.4599 5.10914 39.165 4.96662C38.87 4.8241 38.5385 4.75284 38.1706 4.75284C37.7795 4.75284 37.4382 4.83404 37.1465 4.99645C36.8581 5.15554 36.6344 5.37926 36.4753 5.66761C36.3195 5.95597 36.2417 6.29403 36.2417 6.68182H35.0684C35.0684 6.08523 35.2059 5.56155 35.481 5.1108C35.7561 4.66004 36.1306 4.30871 36.6046 4.05682C37.0819 3.80492 37.6171 3.67898 38.2104 3.67898C38.807 3.67898 39.3356 3.80492 39.7963 4.05682C40.257 4.30871 40.6183 4.64844 40.8801 5.07599C41.142 5.50355 41.2729 5.97917 41.2729 6.50284C41.2729 6.87737 41.205 7.24361 41.0691 7.60156C40.9365 7.9562 40.7045 8.35227 40.373 8.78977C40.0449 9.22396 39.5892 9.75426 39.0059 10.3807L36.7189 12.8267V12.9062H41.4519V14H35.0286ZM43.5051 14V13.1051L46.8659 9.42614C47.2604 8.99526 47.5852 8.62074 47.8404 8.30256C48.0956 7.98106 48.2845 7.67945 48.4071 7.39773C48.5331 7.11269 48.5961 6.81439 48.5961 6.50284C48.5961 6.14489 48.5099 5.83499 48.3375 5.57315C48.1685 5.31132 47.9365 5.10914 47.6415 4.96662C47.3465 4.8241 47.0151 4.75284 46.6472 4.75284C46.2561 4.75284 45.9147 4.83404 45.623 4.99645C45.3347 5.15554 45.111 5.37926 44.9519 5.66761C44.7961 5.95597 44.7182 6.29403 44.7182 6.68182H43.5449C43.5449 6.08523 43.6825 5.56155 43.9576 5.1108C44.2327 4.66004 44.6072 4.30871 45.0811 4.05682C45.5584 3.80492 46.0937 3.67898 46.687 3.67898C47.2836 3.67898 47.8122 3.80492 48.2729 4.05682C48.7336 4.30871 49.0949 4.64844 49.3567 5.07599C49.6185 5.50355 49.7495 5.97917 49.7495 6.50284C49.7495 6.87737 49.6815 7.24361 49.5456 7.60156C49.4131 7.9562 49.181 8.35227 48.8496 8.78977C48.5215 9.22396 48.0658 9.75426 47.4824 10.3807L45.1955 12.8267V12.9062H49.9284V14H43.5051ZM56.5158 14H55.2232L58.9618 3.81818H60.2346L63.9732 14H62.6806L59.638 5.42898H59.5584L56.5158 14ZM56.9931 10.0227H62.2033V11.1165H56.9931V10.0227ZM65.4 14V6.36364H66.5336V7.51705H66.6131C66.7523 7.1392 67.0042 6.83262 67.3688 6.5973C67.7334 6.36198 68.1444 6.24432 68.6017 6.24432C68.6879 6.24432 68.7956 6.24597 68.9249 6.24929C69.0542 6.2526 69.1519 6.25758 69.2182 6.2642V7.45739C69.1784 7.44744 69.0873 7.43253 68.9448 7.41264C68.8056 7.38944 68.6581 7.37784 68.5023 7.37784C68.1311 7.37784 67.7997 7.45573 67.508 7.61151C67.2196 7.76397 66.9909 7.97609 66.8219 8.24787C66.6562 8.51634 66.5733 8.82292 66.5733 9.16761V14H65.4ZM73.4789 14.1591C72.7895 14.1591 72.1846 13.995 71.6642 13.6669C71.1472 13.3388 70.7428 12.8797 70.4512 12.2898C70.1628 11.6998 70.0186 11.0104 70.0186 10.2216C70.0186 9.42614 70.1628 8.73177 70.4512 8.13849C70.7428 7.54522 71.1472 7.08452 71.6642 6.75639C72.1846 6.42827 72.7895 6.2642 73.4789 6.2642C74.1683 6.2642 74.7715 6.42827 75.2885 6.75639C75.8089 7.08452 76.2132 7.54522 76.5016 8.13849C76.7933 8.73177 76.9391 9.42614 76.9391 10.2216C76.9391 11.0104 76.7933 11.6998 76.5016 12.2898C76.2132 12.8797 75.8089 13.3388 75.2885 13.6669C74.7715 13.995 74.1683 14.1591 73.4789 14.1591ZM73.4789 13.1051C74.0025 13.1051 74.4334 12.9709 74.7715 12.7024C75.1096 12.4339 75.3598 12.081 75.5222 11.6435C75.6846 11.206 75.7658 10.732 75.7658 10.2216C75.7658 9.71117 75.6846 9.23556 75.5222 8.79474C75.3598 8.35393 75.1096 7.99763 74.7715 7.72585C74.4334 7.45407 74.0025 7.31818 73.4789 7.31818C72.9552 7.31818 72.5243 7.45407 72.1863 7.72585C71.8482 7.99763 71.598 8.35393 71.4355 8.79474C71.2731 9.23556 71.1919 9.71117 71.1919 10.2216C71.1919 10.732 71.2731 11.206 71.4355 11.6435C71.598 12.081 71.8482 12.4339 72.1863 12.7024C72.5243 12.9709 72.9552 13.1051 73.4789 13.1051ZM83.5426 10.8778V6.36364H84.7159V14H83.5426V12.7074H83.4631C83.2841 13.0952 83.0057 13.425 82.6278 13.6967C82.25 13.9652 81.7727 14.0994 81.196 14.0994C80.7188 14.0994 80.2945 13.995 79.9233 13.7862C79.5521 13.5741 79.2604 13.2559 79.0483 12.8317C78.8362 12.4041 78.7301 11.8655 78.7301 11.2159V6.36364H79.9034V11.1364C79.9034 11.6932 80.0592 12.1373 80.3707 12.4688C80.6856 12.8002 81.0866 12.9659 81.5739 12.9659C81.8655 12.9659 82.1622 12.8913 82.4638 12.7422C82.7687 12.593 83.0239 12.3643 83.2294 12.0561C83.4382 11.7479 83.5426 11.3551 83.5426 10.8778ZM88.0382 9.40625V14H86.8649V6.36364H87.9984V7.55682H88.0978C88.2768 7.16903 88.5486 6.85748 88.9132 6.62216C89.2778 6.38352 89.7484 6.2642 90.3251 6.2642C90.8422 6.2642 91.2946 6.37027 91.6824 6.58239C92.0701 6.79119 92.3717 7.10938 92.5872 7.53693C92.8026 7.96117 92.9103 8.49811 92.9103 9.14773V14H91.737V9.22727C91.737 8.62737 91.5813 8.16004 91.2697 7.82528C90.9582 7.48722 90.5306 7.31818 89.987 7.31818C89.6125 7.31818 89.2778 7.39938 88.9828 7.56179C88.6911 7.72419 88.4608 7.96117 88.2917 8.27273C88.1227 8.58428 88.0382 8.96212 88.0382 9.40625ZM97.9379 14.1591C97.3015 14.1591 96.7397 13.9983 96.2525 13.6768C95.7653 13.352 95.3841 12.8946 95.109 12.3047C94.8339 11.7114 94.6964 11.0104 94.6964 10.2017C94.6964 9.39962 94.8339 8.7036 95.109 8.11364C95.3841 7.52367 95.7669 7.06794 96.2575 6.74645C96.748 6.42495 97.3147 6.2642 97.9577 6.2642C98.4549 6.2642 98.8477 6.34706 99.136 6.51278C99.4277 6.67519 99.6497 6.8608 99.8022 7.0696C99.958 7.27509 100.079 7.44413 100.165 7.5767H100.265V3.81818H101.438V14H100.304V12.8267H100.165C100.079 12.9659 99.9563 13.1416 99.7972 13.3537C99.6381 13.5625 99.4111 13.7498 99.1161 13.9155C98.8211 14.0779 98.4284 14.1591 97.9379 14.1591ZM98.0969 13.1051C98.5676 13.1051 98.9653 12.9825 99.2901 12.7372C99.6149 12.4886 99.8619 12.1456 100.031 11.7081C100.2 11.2673 100.284 10.7585 100.284 10.1818C100.284 9.61174 100.202 9.11293 100.036 8.68537C99.8701 8.2545 99.6249 7.91974 99.3001 7.68111C98.9753 7.43916 98.5742 7.31818 98.0969 7.31818C97.5998 7.31818 97.1855 7.44579 96.854 7.70099C96.5259 7.95289 96.279 8.29593 96.1133 8.73011C95.9509 9.16098 95.8697 9.64489 95.8697 10.1818C95.8697 10.7254 95.9525 11.2192 96.1183 11.6634C96.2873 12.1042 96.5359 12.4555 96.864 12.7173C97.1954 12.9759 97.6064 13.1051 98.0969 13.1051ZM107.289 4.91193V3.81818H114.926V4.91193H111.724V14H110.491V4.91193H107.289ZM117.843 9.40625V14H116.67V3.81818H117.843V7.55682H117.942C118.121 7.16241 118.39 6.84919 118.748 6.61719C119.109 6.38187 119.59 6.2642 120.189 6.2642C120.71 6.2642 121.166 6.36861 121.557 6.57741C121.948 6.78291 122.251 7.09943 122.466 7.52699C122.685 7.95123 122.795 8.49148 122.795 9.14773V14H121.621V9.22727C121.621 8.62074 121.464 8.15175 121.149 7.82031C120.837 7.48556 120.405 7.31818 119.851 7.31818C119.467 7.31818 119.122 7.39938 118.817 7.56179C118.516 7.72419 118.277 7.96117 118.101 8.27273C117.929 8.58428 117.843 8.96212 117.843 9.40625ZM128.143 14.1591C127.407 14.1591 126.772 13.9967 126.239 13.6719C125.708 13.3438 125.299 12.8864 125.011 12.2997C124.726 11.7098 124.583 11.0237 124.583 10.2415C124.583 9.45928 124.726 8.76989 125.011 8.1733C125.299 7.57339 125.7 7.10606 126.214 6.77131C126.731 6.43324 127.334 6.2642 128.023 6.2642C128.421 6.2642 128.814 6.33049 129.202 6.46307C129.589 6.59564 129.942 6.81108 130.261 7.10938C130.579 7.40436 130.832 7.79545 131.021 8.28267C131.21 8.76989 131.305 9.36979 131.305 10.0824V10.5795H125.418V9.56534H130.112C130.112 9.13447 130.025 8.75 129.853 8.41193C129.684 8.07386 129.442 7.80705 129.127 7.61151C128.816 7.41596 128.448 7.31818 128.023 7.31818C127.556 7.31818 127.152 7.43419 126.81 7.66619C126.472 7.89489 126.212 8.19318 126.03 8.56108C125.848 8.92898 125.756 9.32339 125.756 9.74432V10.4205C125.756 10.9972 125.856 11.486 126.055 11.8871C126.257 12.2848 126.537 12.5881 126.895 12.7969C127.253 13.0024 127.669 13.1051 128.143 13.1051C128.451 13.1051 128.729 13.062 128.978 12.9759C129.23 12.8864 129.447 12.7538 129.629 12.5781C129.812 12.3991 129.952 12.1771 130.052 11.9119L131.185 12.2301C131.066 12.6146 130.866 12.9527 130.584 13.2443C130.302 13.5327 129.954 13.758 129.54 13.9205C129.125 14.0795 128.66 14.1591 128.143 14.1591ZM143.868 3.81818H145.101V10.5597C145.101 11.2557 144.937 11.8771 144.609 12.424C144.284 12.9676 143.825 13.3968 143.232 13.7116C142.638 14.0232 141.942 14.179 141.143 14.179C140.345 14.179 139.649 14.0232 139.055 13.7116C138.462 13.3968 138.001 12.9676 137.673 12.424C137.348 11.8771 137.186 11.2557 137.186 10.5597V3.81818H138.419V10.4602C138.419 10.9574 138.528 11.3999 138.747 11.7876C138.966 12.1721 139.277 12.4754 139.682 12.6974C140.089 12.9162 140.577 13.0256 141.143 13.0256C141.71 13.0256 142.197 12.9162 142.605 12.6974C143.013 12.4754 143.324 12.1721 143.54 11.7876C143.759 11.3999 143.868 10.9574 143.868 10.4602V3.81818ZM147.781 14.0795C147.535 14.0795 147.325 13.9917 147.149 13.8161C146.973 13.6404 146.886 13.4299 146.886 13.1847C146.886 12.9394 146.973 12.7289 147.149 12.5533C147.325 12.3776 147.535 12.2898 147.781 12.2898C148.026 12.2898 148.236 12.3776 148.412 12.5533C148.588 12.7289 148.675 12.9394 148.675 13.1847C148.675 13.3471 148.634 13.4962 148.551 13.6321C148.472 13.768 148.364 13.8774 148.228 13.9602C148.095 14.0398 147.946 14.0795 147.781 14.0795ZM156.508 6.36364C156.449 5.85985 156.207 5.46875 155.782 5.19034C155.358 4.91193 154.838 4.77273 154.221 4.77273C153.77 4.77273 153.376 4.84564 153.038 4.99148C152.703 5.13731 152.441 5.33783 152.252 5.59304C152.067 5.84825 151.974 6.13826 151.974 6.46307C151.974 6.73485 152.039 6.96851 152.168 7.16406C152.301 7.3563 152.47 7.51705 152.675 7.64631C152.881 7.77225 153.096 7.87666 153.321 7.95952C153.547 8.03906 153.754 8.10369 153.943 8.15341L154.977 8.43182C155.242 8.50142 155.537 8.59754 155.862 8.72017C156.19 8.8428 156.503 9.01018 156.801 9.2223C157.103 9.43111 157.352 9.69957 157.547 10.0277C157.743 10.3558 157.841 10.7585 157.841 11.2358C157.841 11.786 157.696 12.2831 157.408 12.7273C157.123 13.1714 156.705 13.5244 156.155 13.7862C155.608 14.0481 154.944 14.179 154.162 14.179C153.432 14.179 152.801 14.0613 152.267 13.826C151.737 13.5907 151.319 13.2625 151.015 12.8416C150.713 12.4207 150.542 11.9318 150.502 11.375H151.775C151.808 11.7595 151.938 12.0777 152.163 12.3295C152.392 12.5781 152.68 12.7637 153.028 12.8864C153.379 13.0057 153.757 13.0653 154.162 13.0653C154.632 13.0653 155.055 12.9891 155.429 12.8366C155.804 12.6809 156.1 12.4654 156.319 12.1903C156.538 11.9119 156.647 11.5871 156.647 11.2159C156.647 10.8778 156.553 10.6027 156.364 10.3906C156.175 10.1785 155.926 10.0062 155.618 9.87358C155.31 9.741 154.977 9.625 154.619 9.52557L153.366 9.16761C152.571 8.93892 151.941 8.61245 151.477 8.18821C151.013 7.76397 150.781 7.20881 150.781 6.52273C150.781 5.95265 150.935 5.45549 151.243 5.03125C151.555 4.60369 151.972 4.27225 152.496 4.03693C153.023 3.7983 153.611 3.67898 154.261 3.67898C154.917 3.67898 155.501 3.79664 156.011 4.03196C156.521 4.26397 156.926 4.58215 157.224 4.98651C157.526 5.39086 157.685 5.8499 157.701 6.36364H156.508ZM160.564 14.0795C160.318 14.0795 160.108 13.9917 159.932 13.8161C159.757 13.6404 159.669 13.4299 159.669 13.1847C159.669 12.9394 159.757 12.7289 159.932 12.5533C160.108 12.3776 160.318 12.2898 160.564 12.2898C160.809 12.2898 161.019 12.3776 161.195 12.5533C161.371 12.7289 161.459 12.9394 161.459 13.1847C161.459 13.3471 161.417 13.4962 161.334 13.6321C161.255 13.768 161.147 13.8774 161.011 13.9602C160.879 14.0398 160.729 14.0795 160.564 14.0795Z" fill="#545454"/>
</svg>
